<svg width="61" height="61" viewBox="0 0 61 61" fill="none" xmlns="http://www.w3.org/2000/svg">
<rect x="0.5" y="0.5" width="60" height="60" rx="30" fill="#28AAC4"/>
<path d="M17.9316 20.9L17.9316 40.1L10.0004 40.1C8.56289 40.1 7.32227 39.8187 6.27852 39.2562C5.22852 38.7 4.41914 37.9219 3.85039 36.9219C3.28164 35.9281 2.99727 34.7718 2.99727 33.4531C2.99727 32.1281 3.28789 30.9687 3.86914 29.975C4.44414 28.9875 5.26602 28.2218 6.33477 27.6781C7.40352 27.1343 8.67227 26.8625 10.141 26.8625L15.0348 26.8625L15.0348 30.5187L11.0035 30.5187C10.3035 30.5187 9.71914 30.6406 9.25039 30.8844C8.77539 31.1281 8.41602 31.4687 8.17227 31.9062C7.92852 32.35 7.80664 32.8656 7.80664 33.4531C7.80664 34.0469 7.92852 34.5594 8.17227 34.9906C8.41602 35.4281 8.77539 35.7656 9.25039 36.0031C9.72539 36.2406 10.3098 36.3593 11.0035 36.3593L13.291 36.3593L13.291 20.9L17.9316 20.9Z" fill="white"/>
<path d="M17.9316 40.1V20.9H25.8629C27.3004 20.9 28.541 21.1813 29.5848 21.7438C30.6348 22.3 31.4441 23.0781 32.0129 24.0781C32.5816 25.0719 32.866 26.2281 32.866 27.5469C32.866 28.8719 32.5754 30.0313 31.9941 31.025C31.4191 32.0125 30.5973 32.7781 29.5285 33.3219C28.4598 33.8656 27.191 34.1375 25.7223 34.1375H20.8285V30.4813H24.8598C25.5598 30.4813 26.1441 30.3594 26.6129 30.1156C27.0879 29.8719 27.4473 29.5313 27.691 29.0938C27.9348 28.65 28.0566 28.1344 28.0566 27.5469C28.0566 26.9531 27.9348 26.4406 27.691 26.0094C27.4473 25.5719 27.0879 25.2344 26.6129 24.9969C26.1379 24.7594 25.5535 24.6406 24.8598 24.6406H22.5723V40.1H17.9316Z" fill="black"/>
<path d="M39.3066 20.9V40.1H34.666V20.9H39.3066Z" fill="black"/>
<path d="M48.5248 40.1H41.4279V20.9H48.5154C50.4717 20.9 52.156 21.2844 53.5685 22.0531C54.9873 22.8156 56.081 23.9156 56.8498 25.3531C57.6185 26.7844 58.0029 28.4969 58.0029 30.4906C58.0029 32.4906 57.6185 34.2094 56.8498 35.6469C56.0873 37.0844 54.9967 38.1875 53.5779 38.9563C52.1592 39.7188 50.4748 40.1 48.5248 40.1ZM46.0685 36.1438H48.3467C49.4217 36.1438 50.331 35.9625 51.0748 35.6C51.8248 35.2313 52.3904 34.6344 52.7717 33.8094C53.1592 32.9781 53.3529 31.8719 53.3529 30.4906C53.3529 29.1094 53.1592 28.0094 52.7717 27.1906C52.3842 26.3656 51.8123 25.7719 51.056 25.4094C50.306 25.0406 49.381 24.8563 48.281 24.8563H46.0685V36.1438Z" fill="black"/>
</svg>
