<svg width="55" height="60" viewBox="0 0 55 60" fill="none" xmlns="http://www.w3.org/2000/svg">
<g filter="url(#filter0_d_700_9212)">
<path fill-rule="evenodd" clip-rule="evenodd" d="M20.819 24.2882C20.819 22.6124 22.2196 21.2037 24.0098 21.2037C25.8001 21.2037 27.2007 22.6124 27.2007 24.2882C27.2007 25.9217 25.87 27.3013 24.1449 27.37C24.0971 27.3643 24.0486 27.3613 23.9993 27.3613C23.952 27.3613 23.9053 27.3641 23.8593 27.3694C22.1417 27.2931 20.819 25.9169 20.819 24.2882ZM22.7949 29.6514C21.734 29.4205 20.7816 28.8936 20.0377 28.1604L16.0377 30.1316V31.6249C17.484 32.1112 18.5455 33.4551 18.5455 35.0736C18.5455 37.1137 16.859 38.7175 14.8411 38.7175C12.8232 38.7175 11.1367 37.1137 11.1367 35.0736C11.1367 33.4609 12.1906 32.1209 13.6289 31.6301V29.3824C13.6289 28.9237 13.8895 28.5049 14.3009 28.3021L18.7282 26.1203C18.5224 25.5487 18.4102 24.9324 18.4102 24.2882C18.4102 21.2267 20.9452 18.7949 24.0098 18.7949C27.0744 18.7949 29.6095 21.2267 29.6095 24.2882C29.6095 24.9316 29.4975 25.5472 29.2922 26.1183L33.7009 28.3033C34.111 28.5066 34.3705 28.9247 34.3705 29.3825V31.6277C35.8124 32.1165 36.8697 33.4583 36.8697 35.0736C36.8697 37.1137 35.1832 38.7175 33.1653 38.7175C31.1474 38.7175 29.4609 37.1137 29.4609 35.0736C29.4609 33.4577 30.519 32.1156 31.9617 31.6272V30.1298L27.9839 28.1584C27.2348 28.8974 26.2741 29.4272 25.2037 29.6559V34.0669C26.6461 34.5555 27.7037 35.8974 27.7037 37.513C27.7037 39.5532 26.0172 41.1569 23.9993 41.1569C21.9814 41.1569 20.2949 39.5532 20.2949 37.513C20.2949 35.8974 21.3526 34.5555 22.7949 34.0669V29.6514ZM13.5455 35.0736C13.5455 34.431 14.0777 33.8596 14.8008 33.8391C14.8116 33.8394 14.8224 33.8395 14.8333 33.8395C14.8466 33.8395 14.8599 33.8393 14.8731 33.8389C15.6004 33.8552 16.1367 34.4285 16.1367 35.0736C16.1367 35.7281 15.5846 36.3087 14.8411 36.3087C14.0976 36.3087 13.5455 35.7281 13.5455 35.0736ZM31.8698 35.0736C31.8698 34.4298 32.4039 33.8575 33.1291 33.839C33.1414 33.8393 33.1537 33.8395 33.1661 33.8395C33.1782 33.8395 33.1903 33.8393 33.2023 33.839C33.9271 33.8579 34.4609 34.43 34.4609 35.0736C34.4609 35.7281 33.9088 36.3087 33.1653 36.3087C32.4218 36.3087 31.8698 35.7281 31.8698 35.0736ZM23.9993 36.278C23.2558 36.278 22.7037 36.8586 22.7037 37.513C22.7037 38.1675 23.2558 38.7481 23.9993 38.7481C24.7428 38.7481 25.2949 38.1675 25.2949 37.513C25.2949 36.8586 24.7428 36.278 23.9993 36.278Z" fill="white" fill-opacity="0.85" shape-rendering="crispEdges"/>
</g>
<defs>
<filter id="filter0_d_700_9212" x="-6.98087" y="0.67733" width="61.9676" height="58.5965" filterUnits="userSpaceOnUse" color-interpolation-filters="sRGB">
<feFlood flood-opacity="0" result="BackgroundImageFix"/>
<feColorMatrix in="SourceAlpha" type="matrix" values="0 0 0 0 0 0 0 0 0 0 0 0 0 0 0 0 0 0 127 0" result="hardAlpha"/>
<feOffset/>
<feGaussianBlur stdDeviation="9.0588"/>
<feComposite in2="hardAlpha" operator="out"/>
<feColorMatrix type="matrix" values="0 0 0 0 1 0 0 0 0 1 0 0 0 0 1 0 0 0 0.35 0"/>
<feBlend mode="normal" in2="BackgroundImageFix" result="effect1_dropShadow_700_9212"/>
<feBlend mode="normal" in="SourceGraphic" in2="effect1_dropShadow_700_9212" result="shape"/>
</filter>
</defs>
</svg>
